<svg xmlns="http://www.w3.org/2000/svg" width="40.143" height="40.148" viewBox="0 0 40.143 40.148">
  <g id="footer-connect" transform="translate(-0.039 0)">
    <g id="Group_1086" data-name="Group 1086" transform="translate(0.039 12.906)">
      <g id="Group_1085" data-name="Group 1085" transform="translate(0)">
        <path id="Path_3704" data-name="Path 3704" d="M24.532,167.357a9.108,9.108,0,0,0-1.572-1.264,9.368,9.368,0,0,0-11.674,1.264l-8.51,8.517a9.367,9.367,0,0,0,13.24,13.253l7.025-7.025a.669.669,0,0,0-.475-1.144H22.3a11.26,11.26,0,0,1-4.282-.83.669.669,0,0,0-.729.147l-5.051,5.058a4.016,4.016,0,0,1-5.68-5.68l8.543-8.537a4.014,4.014,0,0,1,5.673,0,2.743,2.743,0,0,0,3.76,0,2.65,2.65,0,0,0,0-3.76Z" transform="translate(-0.039 -164.614)" fill="#b1e36c"/>
      </g>
    </g>
    <g id="Group_1088" data-name="Group 1088" transform="translate(14.893 0)">
      <g id="Group_1087" data-name="Group 1087" transform="translate(0 0)">
        <path id="Path_3705" data-name="Path 3705" d="M212.046,2.744a9.367,9.367,0,0,0-13.247,0l-7.018,7.011a.672.672,0,0,0,.488,1.144h.248a11.239,11.239,0,0,1,4.275.836.669.669,0,0,0,.729-.147l5.038-5.031a4.016,4.016,0,1,1,5.68,5.68l-6.275,6.269-.054.06-2.194,2.181a4.014,4.014,0,0,1-5.673,0,2.743,2.743,0,0,0-3.76,0,2.667,2.667,0,0,0,0,3.773,9.286,9.286,0,0,0,2.676,1.873c.14.067.281.12.421.181s.288.107.428.161.288.1.428.14l.395.107c.268.067.535.12.809.167a9.315,9.315,0,0,0,1,.094h.508l.4-.047c.147-.007.3-.04.475-.04h.227l.462-.067.214-.04.388-.08h.074a9.365,9.365,0,0,0,4.342-2.462l8.517-8.517A9.367,9.367,0,0,0,212.046,2.744Z" transform="translate(-189.502 0)" fill="#b1e36c"/>
      </g>
    </g>
  </g>
</svg>
